<?xml version="1.0" standalone="no"?>
<!DOCTYPE svg PUBLIC "-//W3C//DTD SVG 20010904//EN"
 "http://www.w3.org/TR/2001/REC-SVG-20010904/DTD/svg10.dtd">
<svg version="1.0" xmlns="http://www.w3.org/2000/svg"
 width="260.000000pt" height="260.000000pt" viewBox="0 0 260.000000 260.000000"
 preserveAspectRatio="xMidYMid meet">
<metadata>
Created by potrace 1.14, written by Peter Selinger 2001-2017
</metadata>
<g transform="translate(0.000000,260.000000) scale(0.100000,-0.100000)"
fill="#000000" stroke="none">
<path d="M962 2419 c-82 -10 -112 -22 -113 -47 0 -9 -1 -82 -2 -162 l-1 -144
25 -6 c21 -5 24 -12 24 -53 1 -52 -3 -57 -55 -77 -48 -19 -93 -72 -113 -132
-14 -45 -16 -132 -17 -750 0 -746 -1 -741 48 -767 27 -14 125 -29 242 -37 121
-7 529 -8 537 0 3 3 21 -4 41 -14 37 -20 76 -18 101 5 11 11 18 8 38 -15 32
-38 83 -49 117 -23 24 18 41 54 38 83 -1 8 3 5 9 -6 12 -23 49 -44 78 -44 24
0 81 20 80 28 -1 4 2 17 6 28 6 19 12 21 44 17 72 -10 112 67 63 120 -15 15
-18 27 -12 37 26 41 -77 81 -142 55 -10 -4 -18 -11 -18 -16 0 -15 -29 2 -35
22 -4 10 -13 19 -21 19 -8 0 -14 4 -14 9 0 5 -12 24 -27 42 l-28 33 0 565 c-1
530 -2 569 -20 619 -23 64 -62 105 -121 128 l-44 17 0 53 c0 48 2 54 20 54 11
0 24 9 28 20 12 31 7 299 -6 312 -24 24 -157 35 -415 35 -144 0 -295 -4 -335
-8z"/>
</g>
</svg>
